<?xml version="1.0" encoding="UTF-8" standalone="no"?>
<!-- Created with Inkscape (http://www.inkscape.org/) -->

<svg
   version="1.1"
   id="svg1"
   width="808.52155"
   height="344.28577"
   viewBox="0 0 808.52154 344.28577"
   sodipodi:docname="Carte commune.svg"
   inkscape:export-filename="Carte commune.svg"
   inkscape:export-xdpi="96"
   inkscape:export-ydpi="96"
   inkscape:version="1.4.2 (f4327f4, 2025-05-13)"
   xmlns:inkscape="http://www.inkscape.org/namespaces/inkscape"
   xmlns:sodipodi="http://sodipodi.sourceforge.net/DTD/sodipodi-0.dtd"
   xmlns="http://www.w3.org/2000/svg"
   xmlns:svg="http://www.w3.org/2000/svg">
  <defs
     id="defs1" />
  <sodipodi:namedview
     id="namedview1"
     pagecolor="#ffffff"
     bordercolor="#000000"
     borderopacity="0.25"
     inkscape:showpageshadow="2"
     inkscape:pageopacity="0.0"
     inkscape:pagecheckerboard="0"
     inkscape:deskcolor="#d1d1d1"
     inkscape:export-bgcolor="#ffffff00"
     inkscape:zoom="1.4142136"
     inkscape:cx="456.43743"
     inkscape:cy="112.78353"
     inkscape:window-width="1920"
     inkscape:window-height="1051"
     inkscape:window-x="-9"
     inkscape:window-y="-9"
     inkscape:window-maximized="1"
     inkscape:current-layer="layer1">
    <inkscape:page
       x="0"
       y="0"
       width="808.52155"
       height="344.28577"
       id="page2"
       margin="0"
       bleed="0" />
  </sodipodi:namedview>
  <text
     xml:space="preserve"
     style="font-style:normal;font-variant:normal;font-weight:bold;font-stretch:normal;font-size:16px;font-family:Montserrat;-inkscape-font-specification:'Montserrat Bold';text-align:center;writing-mode:lr-tb;direction:ltr;text-anchor:middle;fill:#000000;fill-opacity:1;stroke:none;stroke-width:1;stroke-linecap:round;stroke-linejoin:round;stroke-dasharray:none;stroke-opacity:1;paint-order:stroke fill markers"
     x="668.94745"
     y="321.58786"
     id="text5"
     inkscape:label="Ocean"><tspan
       sodipodi:role="line"
       id="tspan5"
       x="668.94745"
       y="321.58786">OCEAN ATLANTIQUE</tspan></text>
  <text
     xml:space="preserve"
     style="font-style:normal;font-variant:normal;font-weight:bold;font-stretch:normal;font-size:16px;font-family:Montserrat;-inkscape-font-specification:'Montserrat Bold';text-align:start;writing-mode:lr-tb;direction:ltr;text-anchor:start;fill:#000000;fill-opacity:1;stroke:none;stroke-width:1;stroke-linecap:round;stroke-linejoin:round;stroke-dasharray:none;stroke-opacity:1;paint-order:stroke fill markers"
     x="208.64597"
     y="288.93433"
     id="text2"
     inkscape:label="Ghana"><tspan
       sodipodi:role="line"
       id="tspan2"
       x="208.64597"
       y="288.93433"
       style="font-style:normal;font-variant:normal;font-weight:bold;font-stretch:normal;font-size:16px;font-family:Montserrat;-inkscape-font-specification:'Montserrat Bold';text-align:center;text-anchor:middle;fill:#000000;fill-opacity:1;stroke:none">REPUBLIQUE</tspan><tspan
       sodipodi:role="line"
       x="208.64597"
       y="308.93433"
       style="font-style:normal;font-variant:normal;font-weight:bold;font-stretch:normal;font-size:16px;font-family:Montserrat;-inkscape-font-specification:'Montserrat Bold';text-align:center;text-anchor:middle;fill:#000000;fill-opacity:1;stroke:none"
       id="tspan3">DU</tspan><tspan
       sodipodi:role="line"
       x="208.64597"
       y="328.93433"
       style="font-style:normal;font-variant:normal;font-weight:bold;font-stretch:normal;font-size:16px;font-family:Montserrat;-inkscape-font-specification:'Montserrat Bold';text-align:center;text-anchor:middle;fill:#000000;fill-opacity:1;stroke:none"
       id="tspan4">GHANA</tspan></text>
  <g
     inkscape:groupmode="layer"
     id="layer1"
     inkscape:label="Dessin"
     transform="translate(-161.0683,-6.5000004)">
    <path
       style="display:inline;fill:#8e362e;fill-opacity:0.951705;stroke:#000000;stroke-width:1;stroke-linecap:round;stroke-linejoin:round;stroke-dasharray:none;stroke-opacity:1;paint-order:stroke fill markers"
       d="M 614.03385,121.62237 626,106 637.75,76.75 632.25,71.5 614,40.25 604,16.5 563.75,17 545.25,7 519.5,8 488.75,8.75 475.5,28.5 l -19.25,21 -9.5,30.25 8.25,0.75 -4.75,3.593751 0.5,5.906249 5.375,2.307766 -3,0.942234 0.13045,2.386192 8.13172,0.883883 0.35356,2.121321 3.53553,1.414214 7.6014,1.76777 1.06066,5.3033 5.48008,-0.17678 0.35355,3.88909 7.07107,1.41421 0.35355,2.47487 6.00344,-1.41421 1.24441,1.94454 9.01561,-3.0052 9.01561,2.47487 15.20279,-4.94974 2.65165,2.29809 4.06587,0.35356 9.01561,3.0052 1.83844,3.43982 -1.75,1.75 12,0.375 4.625,0.75 1,1.375 8.25,-0.125 3.25,2.125 3.375,0.25 -0.5,2.375 h 4.875 l 0.75,-1.75 2.875,0.625 0.375,1.875 h 4.25 l -0.125,-2.125 2.125,0.25 2.75,1.375 4.625,-1.625 3.25,1.875 z"
       id="Agoe-Nyive_6"
       inkscape:label="Agoè-Nyivé 6">
      <title
         id="title17">Agoè-Nyivé 6</title>
    </path>
    <path
       style="display:inline;fill:#f61a2e;fill-opacity:0.951705;stroke:#000000;stroke-width:1;stroke-linecap:round;stroke-linejoin:round;stroke-dasharray:none;stroke-opacity:1;paint-order:stroke fill markers"
       d="m 436.46166,93.161318 5.65685,2.298097 11.13694,0.176777 8.13172,0.883883 0.35356,2.121321 3.53553,1.414214 7.6014,1.76777 1.06066,5.3033 5.48008,-0.17678 0.35355,3.88909 7.07107,1.41421 0.35355,2.47487 6.00344,-1.41421 1.24441,1.94454 9.01561,-3.0052 9.01561,2.47487 15.20279,-4.94974 2.65165,2.29809 4.06587,0.35356 9.01561,3.0052 1.83844,3.43982 -1.75,1.75 12,0.375 4.625,0.75 1,1.375 8.25,-0.125 3.25,2.125 3.375,0.25 -0.5,2.375 h 4.875 l 0.75,-1.75 2.875,0.625 0.375,1.875 h 4.25 l -0.125,-2.125 2.125,0.25 2.75,1.375 4.625,-1.625 3.25,1.875 0.5,2.875 5.875,0.25 -2.625,4.125 4,0.25 6,4.625 -0.375,2.625 3.375,0.875 2,-1 v -1.125 l 2.875,-0.125 0.125,2.125 5.125,2.25 -15.06342,16.98811 -7.51301,8.83884 -8.04334,14.41308 -8.83884,8.33296 -18.29139,-5.94799 -6.25,-1.25 -9.75,-5 -12.25,-5.875 -3.875,-4 -17.125,0.25 -0.25,-1.75 -4.5,0.25 -10.5,3.75 -5.5,-0.375 0.375,-4.5 -1.5,-0.875 -0.25,-4 -4.5,-0.375 -1.29999,1.75 -7.82501,-0.375 -4.375,1 -6,-6.5 v -2.625 l 1.375,-3.25 -10.625,-2.625 -3.5,-0.25 -7.75,-0.5 -7.25,-1 -10.75,-0.25 -3,-2.25 -0.625,-3.125 -9.6716,-3.36526 -0.17678,-4.68458 1.14905,-1.06066 0.0884,-5.65685 1.94454,-1.41422 1.06066,-7.24784 -4.06586,-6.18719 0.88388,-15.379567 -1.94454,-1.590991 0.88388,-5.480077 z"
       id="Agoe-Nyive_4"
       inkscape:label="Agoè-Nyivé 4">
      <title
         id="title16">Agoè-Nyivé 4</title>
    </path>
    <path
       style="display:inline;fill:#f4a42e;fill-opacity:0.951705;stroke:#000000;stroke-width:1.5;stroke-linecap:round;stroke-linejoin:round;stroke-dasharray:none;stroke-opacity:1;paint-order:stroke fill markers"
       d="m 407.92994,211.3362 -16.72311,-9.45721 5.6681,-2.65165 -13.04763,-6.02662 -16.59069,-7.82993 -2.24934,0.29339 -13.59382,7.82378 -0.39119,3.12952 -10.8555,-0.0978 v 2.93392 l -6.55242,6.06343 -1.20776,3.73496 6.63655,0.17822 1.38307,0.82984 2.2129,0.27661 4.42579,-4.7024 12.44757,5.53225 3.31934,1.10645 1.65968,-3.31936 10.78789,4.97902 2.2129,0.82984 3.31934,-2.76612 -1.93628,-3.31935 17.97981,8.29837 5.80886,0.82984 3.04274,-0.27662 -1.10645,-3.04273 z"
       id="Agoe-Nyive_3"
       inkscape:label="Agoè-Nyivé 3">
      <title
         id="title12">Agoè-Nyivé 3</title>
    </path>
    <path
       style="display:inline;fill:#0ea42e;fill-opacity:0.951705;stroke:#000000;stroke-width:1;stroke-linecap:round;stroke-linejoin:round;stroke-dasharray:none;stroke-opacity:1;paint-order:stroke fill markers"
       d="m 368.75619,175.1857 8.36389,2.88893 L 367.8125,182.875 345,182.75 318,163.25 290.5,160 l -11.25,-7.75 -13,-3.75 -1.63295,-2.75 v -6 l -6.36705,-3 0.25,-3.5 29.75,-1.5 4,-17.375 h 7.25 l 39.625,-10.875 21.9375,-11.5625 17,-6.0625 6.90625,-1.28125 7.59375,1.90625 4.3125,4.71875 10.4185,1.235461 1.591,1.944544 6.54073,-0.353553 1.41422,1.06066 h 2.47487 l 0.35355,-2.474874 3.35876,0.176777 -0.88388,5.480077 1.94454,1.590991 -0.88388,15.379567 4.06586,6.18719 -1.06066,7.24784 -1.94454,1.41422 -0.0884,5.65685 -1.14905,1.06066 0.17678,4.68458 -19.26866,13.34664 h -3.88909 z"
       id="Agoe-Nyive_2"
       inkscape:label="Agoè-Nyivé 2">
      <title
         id="title15">Agoè-Nyivé 2</title>
    </path>
    <path
       style="display:inline;fill:#31120d;fill-opacity:0.951705;stroke:#000000;stroke-width:1;stroke-linecap:round;stroke-linejoin:round;stroke-dasharray:none;stroke-opacity:1;paint-order:stroke fill markers"
       d="m 566.92286,220.44054 -0.17678,-6.71752 1.94455,-1.23743 -0.35356,-5.83363 9.01562,-5.48008 2.82842,0.17678 8.48528,-6.77567 -18.29139,-5.94799 -6.25,-1.25 -22,-10.875 -3.875,-4 -17.125,0.25 -0.25,-1.75 -4.5,0.25 -10.5,3.75 -5.5,-0.375 0.375,-4.5 -1.5,-0.875 -0.25,-4 -4.5,-0.375 -1.29999,1.75 -7.82501,-0.375 -4.375,1 -6,-6.5 v -2.625 l 1.375,-3.25 -10.625,-2.625 -7.375,-0.5 -3.875,-0.25 -3.625,-0.5 -3.625,-0.5 -10.75,-0.25 -3,-2.25 -0.625,-3.125 -9.6716,-3.36526 -19.26866,13.34664 h -3.88909 l -31.28946,20.32932 8.36389,2.88893 6.56742,-3.38713 12.4375,5.5625 -5.5,4.37079 4.625,2.00421 -11.4227,6.57572 13.04763,6.02662 -5.6681,2.65165 16.72311,9.45721 1.07615,-1.07615 15.21368,7.46853 3.59596,0.27662 -0.27661,3.59596 h 2.2129 l -0.27661,1.93629 4.14918,-2.2129 1.38307,1.93628 11.61772,-2.2129 3.31935,3.31936 7.19192,-2.76613 7.46854,2.2129 3.31935,-0.27661 0.82984,3.87257 h 12.17094 c 0,0 0.20108,-4.26593 -1.72463,-4.44656 -1.92571,-0.18063 0.73348,-1.07577 0.73348,-1.07577 l 3.5696,0.2445 1.22247,-1.76036 2.93392,0.0489 1.27136,1.56476 h 5.08546 l 1.02687,1.22247 7.09035,-0.29255 1.06066,-1.85615 h 6.01041 l 2.82843,-0.44194 -0.88389,1.41421 3.00521,0.0884 0.35355,-1.23744 41.45414,1.23744 -0.0884,-1.85616 z"
       id="Agoe-Nyive_1"
       inkscape:label="Agoè-Nyivé 1">
      <title
         id="title13">Agoè-Nyivé 1</title>
    </path>
    <path
       style="fill:#e209ee;fill-opacity:0.951705;stroke:#000000;stroke-width:1.5;stroke-linecap:round;stroke-linejoin:round;stroke-dasharray:none;stroke-opacity:1;paint-order:stroke fill markers"
       d="m 468.61608,309.54663 -0.17288,40.48915 c 0,0 103.66491,-20.83287 104.44729,-19.36591 0.78238,1.46696 -1.17357,-6.65022 -4.05859,-8.80176 -2.88502,-2.15154 -13.05593,-4.49867 -13.44712,-4.00968 -0.39119,0.48898 -0.44009,-1.90705 -0.44009,-1.90705 l 4.00969,-6.84581 2.24934,-1.27136 5.77003,-0.39119 -0.53788,-6.55242 2.76342,-1.23286 14.07265,-0.69154 1.45202,-1.6452 -1.17357,-2.83612 -11.63787,0.97797 -4.88987,2.24934 -4.88986,0.29339 -1.07577,1.07577 -8.01938,0.0978 -0.19559,3.91189 -2.73833,0.78238 -0.0978,2.05374 -4.40088,-0.0978 -0.68458,1.66255 -5.28105,0.0978 -0.0978,2.15154 2.05374,0.78238 -0.29339,2.44493 -1.36916,0.48899 -0.48899,2.64052 -8.31277,0.0978 -14.47399,-26.69865 h -12.02907 c 0,0 -5.37885,-1.17357 -6.74801,-5.18326 -1.36916,-4.00969 -2.05374,-10.7577 -2.05374,-10.7577 l -5.67224,-17.11452 -0.75741,-2.35591 -9.5777,20.33102 -2.04002,0.5878 0.34576,12.48214 -1.97086,2.00544 0.34577,7.57226 9.84036,6.56443 0.11768,0.12614 -15.76524,4.68427 z"
       id="Golfe_1"
       inkscape:label="Golfe 1">
      <title
         id="title9">Golfe 1</title>
    </path>
    <path
       style="display:inline;mix-blend-mode:normal;fill:#0009ee;fill-opacity:1;stroke:#000000;stroke-width:1.5;stroke-linecap:round;stroke-linejoin:round;stroke-dasharray:none;stroke-opacity:1;paint-order:stroke fill markers"
       d="m 191.41582,186.99002 -5.53225,14.66046 -8.8516,10.78789 -7.19192,21.57577 -2.2129,7.46854 -5.80886,6.08547 1.10645,24.61851 305.65676,1.65967 -2.2129,-4.14918 -11.61772,-0.55323 -57.812,-14.66046 -129.45463,-57.25878 -1.93629,-1.65967 z"
       id="Golfe_7"
       inkscape:label="Golfe 7">
      <title
         id="title11">Golfe 7</title>
    </path>
    <path
       style="display:inline;fill:#46a4c6;fill-opacity:0.951705;stroke:#000000;stroke-width:1;stroke-linecap:round;stroke-linejoin:round;stroke-dasharray:none;stroke-opacity:1;paint-order:stroke fill markers"
       d="m 191.41582,186.99002 11.61221,-21.35026 -10.47402,-12.77211 5.69599,-5.11765 4.25,-0.5 -0.25,-4 -4.25,-1.75 -6.5,-6.75 67,-1.5 -0.25,3.5 6.36705,3 v 6 l 1.63295,2.75 13,3.75 11.25,7.75 27.5,3.25 27,19.5 22.8125,0.125 15.875,-8.1875 12.4375,5.5625 -5.5,4.37079 4.625,2.00421 -11.4227,6.57572 -16.59069,-7.82993 -2.24934,0.29339 -13.59382,7.82378 -0.39119,3.12952 -10.8555,-0.0978 v 2.93392 l -6.55242,6.06343 -1.20776,3.73496 -3.59811,-0.0984 -1.93628,-1.10645 -31.25721,-4.7024 -28.7677,-8.02176 -1.27932,0.24202 -0.181,0.0641 z"
       id="Agoe-Nyive_5"
       inkscape:label="Agoè-Nyivé 5">
      <title
         id="title14">Agoè-Nyivé 5</title>
    </path>
    <path
       style="fill:#31fb14;fill-opacity:0.951705;stroke:#000000;stroke-width:1;stroke-linecap:round;stroke-linejoin:round;stroke-dasharray:none;stroke-opacity:1;paint-order:stroke fill markers"
       d="m 572.84488,203.91192 4.43637,3.40058 13.32969,6.23375 -23.15775,36.76955 -3.88909,4.59619 -0.35355,12.9047 -32.17336,5.12653 1.59099,5.12652 20.15254,17.32412 0.25692,3.78529 -0.19559,3.91189 -2.73833,0.78238 -0.0978,2.05374 -4.40088,-0.0978 -0.68458,1.66255 -5.28105,0.0978 -0.0978,2.15154 2.05374,0.78238 -0.29339,2.44493 -1.36916,0.48899 -0.48899,2.64052 -8.31277,0.0978 -14.47399,-26.69865 h -12.02907 c 0,0 -5.74488,-1.31069 -6.74801,-5.18326 -1.00313,-3.87257 -2.05374,-10.7577 -2.05374,-10.7577 l -6.42965,-19.47043 7.29565,-15.3347 0.82984,-7.46854 -2.2129,-1.38306 -0.26532,-6.69157 7.09035,-0.29255 1.06066,-1.85615 7.42462,-0.22097 0.53033,1.19324 3.00521,0.0884 0.35355,-1.23744 41.45414,1.23744 -0.0884,-1.85616 11.04855,0.17677 -0.17678,-6.71752 1.94455,-1.23743 -0.35356,-5.83363 z"
       id="Golfe_3"
       inkscape:label="Golfe 3">
      <title
         id="title8">Golfe 3</title>
    </path>
    <path
       style="fill:#e3e800;fill-opacity:1;stroke:#000000;stroke-width:1.5;stroke-linecap:round;stroke-linejoin:round;stroke-dasharray:none;stroke-opacity:1;paint-order:stroke fill markers"
       d="m 266.82728,195.32299 28.7677,8.02176 31.25721,4.7024 1.93628,1.10645 10.23466,0.27661 1.38307,0.82984 2.2129,0.27661 4.42579,-4.7024 12.44757,5.53225 3.31934,1.10645 1.65968,-3.31936 10.78789,4.97902 2.2129,0.82984 3.31934,-2.76612 -1.93628,-3.31935 17.97981,8.29837 5.80886,0.82984 3.04274,-0.27662 -1.10645,-3.04273 4.4258,-4.4258 15.21368,7.46853 3.59596,0.27662 -0.27661,3.59596 h 2.2129 l -0.27661,1.93629 4.14918,-2.2129 1.38307,1.93628 11.61772,-2.2129 3.31935,3.31936 7.19192,-2.76613 7.46854,2.2129 3.31935,-0.27661 0.82984,3.87257 h 12.17094 c 0,0 0.13352,-4.44656 -1.72463,-4.44656 -1.85815,0 0.73348,-1.07577 0.73348,-1.07577 l 3.5696,0.2445 1.22247,-1.76036 2.93392,0.0489 1.27136,1.56476 h 5.08546 l 1.02687,1.22247 0.26532,6.69157 2.2129,1.38306 -0.82984,7.46854 -16.87336,35.68301 -1.93628,0.55322 0.27661,12.44756 -1.93629,1.93629 0.27661,7.74515 9.95805,6.6387 -15.76691,4.70241 -2.00544,1.10645 -0.1383,-35.5447 -0.0917,-0.14005 -2.17599,-4.15638 -11.59751,-0.527 -57.78966,-14.66826 -129.52026,-57.27252 -2.00484,-1.62587 z"
       id="Golfe_5"
       inkscape:highlight-color="#603be3"
       inkscape:label="Golfe 5">
      <title
         id="title10">Golfe 5</title>
    </path>
    <path
       style="fill:#31fbf8;fill-opacity:0.951705;stroke:#000000;stroke-width:1;stroke-linecap:round;stroke-linejoin:round;stroke-dasharray:none;stroke-opacity:1;paint-order:stroke fill markers"
       d="m 583.55039,294.48488 7.94443,0.46704 6.45235,-4.15426 h 4.24264 L 663,249.75 658.75,247 l 8.7588,-5.16948 -13.61181,-8.83884 -63.28605,-19.44543 -23.15775,36.76955 -3.88909,4.59619 -0.35355,12.9047 -32.17336,5.12653 1.59099,5.12652 20.15254,17.32412 0.25692,3.78529 8.55726,-0.63569 0.53789,-0.53788 4.88986,-0.29339 4.88987,-2.24934 z"
       id="Golfe_4"
       inkscape:label="Golfe 4">
      <title
         id="title5">Golfe 4</title>
    </path>
    <path
       style="display:inline;fill:#f94b14;fill-opacity:0.951705;stroke:#000000;stroke-width:1;stroke-linecap:round;stroke-linejoin:round;stroke-dasharray:none;stroke-opacity:1;paint-order:stroke fill markers"
       d="M 573.0621,330.77806 597.875,328 l 12.5,-1.75 11.75,-0.375 11.5,-4.375 28.125,-0.5 2.375,-1.5 L 676,320 v 1 l 7.5,-0.25 1.25,-1 31.5,1 -15.375,-2.125 -15.75,-7.5 14.625,-0.875 -0.75,-2.875 8.25,-0.875 3.75,8.875 1,-10.75 8.125,-1.75 2.5,-3.19585 9.75,-1.55415 L 728.5,291.25 748.75,287 719.5,238.25 v -4.75 l 3.75,-3.75 34.25,-5.5 5.5,-2.5 -2.5,-1.25 -4,-0.25 -2.5,-1.75 -4,0.5 -5.5,-3.75 -6.25,-0.25 -0.75,-6.5 -3.5,-0.5 -0.75,-2.5 -5.5,1 -3,-3.08807 h -4.5 l -3,1.33807 -5,-1.33807 -2.25,-3.16193 -7,0.75 -6,-4.5 2,-4 -7.25,-1.75 0.5,-2.75 2,-2 -7.75,-3.5 3.75,-1.7 -3.5,-4.55 -0.75,-3.75 -5.25,-1.75 1,-3.75 -8.23079,-2.4209 -16.44024,-9.01561 -12.90469,-1.76777 0.53033,2.2981 -5.48008,-0.35355 -3.00521,-5.48008 L 628.125,146 l -22.57643,25.82695 -8.04334,14.41308 -8.83884,8.33296 -8.48528,6.77567 -2.82842,-0.17678 -4.50781,2.74004 4.43637,3.40058 13.32969,6.23375 63.28605,19.44543 13.61181,8.83884 L 658.75,247 l 4.25,2.75 -60.81019,41.04766 h -4.24264 l -6.45235,4.15426 -7.94443,-0.46704 1.17357,2.83612 -1.45202,1.6452 -14.07265,0.69154 -2.76342,1.23286 0.53788,6.55242 -5.77003,0.39119 -2.24934,1.27136 -4.00969,6.84581 0.44009,1.90705 c 0,0 8.59152,0.62779 13.44712,4.00968 4.8556,3.38189 4.2302,8.90995 4.2302,8.90995 z"
       id="Golfe_2"
       inkscape:label="Golfe 2">
      <title
         id="title7">Golfe 2</title>
    </path>
    <path
       style="fill:#104b14;fill-opacity:0.951705;stroke:#000000;stroke-width:1;stroke-linecap:round;stroke-linejoin:round;stroke-dasharray:none;stroke-opacity:1;paint-order:stroke fill markers"
       d="m 757.5,224.25 2.81656,2.02417 -1.85615,2.65165 3.62392,2.2981 0.70711,2.65165 h 6.09879 l 11.57888,0.17677 0.61872,-1.94454 9.8111,0.53033 7.86657,-4.94975 h 4.41941 l 6.80591,-5.83363 5.48007,-0.0884 3.71231,1.50261 -0.26516,1.23743 3.53553,-0.35355 1.32583,-1.06066 7.77817,-0.44194 -0.17677,2.29809 3.71231,-0.53033 0.35355,-1.94454 4.24264,-0.0884 -0.79549,2.20971 10.87176,-0.53033 4.86136,0.53033 -0.0884,2.91682 5.21492,0.79549 1.76776,-2.20971 8.22012,-0.0884 6.45235,-1.41421 1.67938,5.56847 5.48007,-2.2981 13.61181,3.18198 21.92031,-3.0052 41.54252,-8.48529 -3.71231,3.71232 0.35356,7.42462 10.6066,17.67767 -1.76777,3.71231 3.18198,3.88908 -0.70711,3.71231 -61.87184,9.72272 -14.31891,0.53033 -25.27907,7.42462 -35.88567,3.00521 -6.36396,2.82843 -6.89429,-1.23744 -30.40559,8.13173 L 732.375,298.125 728.5,291.25 748.75,287 719.5,238.25 v -4.75 l 3.75,-3.75 z"
       id="Golfe_6"
       inkscape:label="Golfe 6">
      <title
         id="title6">Golfe 6</title>
    </path>
    <ellipse
       style="fill:none;fill-opacity:1;stroke:none;stroke-width:1;stroke-linecap:round;stroke-linejoin:round;stroke-dasharray:none;stroke-opacity:1;paint-order:stroke fill markers"
       id="Agoe-Nyive_Label"
       cx="541.99738"
       cy="61.09861"
       rx="6.0100002"
       ry="6.6513891"
       inkscape:label="Agoe-Nyivé 6" />
    <ellipse
       style="fill:none;fill-opacity:1;stroke:none;stroke-width:1;stroke-linecap:round;stroke-linejoin:round;stroke-dasharray:none;stroke-opacity:1;paint-order:stroke fill markers"
       id="Golfe_6_Label"
       cx="924.54211"
       cy="248.55119"
       rx="4.5960002"
       ry="3.8922424"
       inkscape:label="Golfe 6" />
    <ellipse
       style="fill:none;fill-opacity:1;stroke:none;stroke-width:1;stroke-linecap:round;stroke-linejoin:round;stroke-dasharray:none;stroke-opacity:1;paint-order:stroke fill markers"
       id="Golfe_2_Label"
       cx="717.71338"
       cy="279.31934"
       rx="4.9499998"
       ry="4.7229991"
       inkscape:label="Golfe 2" />
    <ellipse
       style="fill:none;fill-opacity:1;stroke:none;stroke-width:1;stroke-linecap:round;stroke-linejoin:round;stroke-dasharray:none;stroke-opacity:1;paint-order:stroke fill markers"
       id="Golfe_4_Label"
       cx="637.8103"
       cy="248.74745"
       rx="4.243"
       ry="4.5885038"
       inkscape:label="Golfe 4" />
    <ellipse
       style="fill:none;fill-opacity:1;stroke:none;stroke-width:1;stroke-linecap:round;stroke-linejoin:round;stroke-dasharray:none;stroke-opacity:1;paint-order:stroke fill markers"
       id="Golfe_1_Label"
       cx="473.62045"
       cy="334.95477"
       rx="5.0910001"
       ry="5.1635776"
       inkscape:label="Golfe 1" />
    <ellipse
       style="fill:none;fill-opacity:1;stroke:none;stroke-width:1;stroke-linecap:round;stroke-linejoin:round;stroke-dasharray:none;stroke-opacity:1;paint-order:stroke fill markers"
       id="Golfe_3_Label"
       cx="511.94531"
       cy="256.69492"
       rx="4.243"
       ry="3.3589706"
       inkscape:label="Golfe 3" />
    <ellipse
       style="fill:none;fill-opacity:1;stroke:none;stroke-width:1;stroke-linecap:round;stroke-linejoin:round;stroke-dasharray:none;stroke-opacity:1;paint-order:stroke fill markers"
       id="Golfe_5_Label"
       cx="381.13055"
       cy="233.14952"
       rx="5.6570001"
       ry="5.2395067"
       inkscape:label="Golfe 5" />
  </g>
</svg>
